<svg width="1024" height="1024" viewBox="0 0 1024 1024" fill="none" xmlns="http://www.w3.org/2000/svg">
<path fill-rule="evenodd" clip-rule="evenodd" d="M317.269 0H706.816C817.152 0 857.088 11.521 897.451 33.0267C937.813 54.6179 969.387 86.2792 990.976 126.56C1012.57 166.926 1024 206.865 1024 317.21V706.79C1024 817.135 1012.48 857.074 990.976 897.44C969.387 937.806 937.728 969.382 897.451 990.973C857.088 1012.56 817.152 1024 706.816 1024H317.269C206.933 1024 166.997 1012.48 126.635 990.973C86.272 969.382 54.6987 937.721 33.1093 897.44C11.52 857.159 0 817.135 0 706.79V317.296C0 206.951 11.52 167.011 33.024 126.645C54.6133 86.2792 86.272 54.6179 126.635 33.0267C166.912 11.521 206.933 0 317.269 0Z" fill="black"/>
</svg>
