<svg width="1027" height="1027" viewBox="0 0 1027 1027" fill="none" xmlns="http://www.w3.org/2000/svg">
<rect width="1025" height="1025" transform="translate(0.5 0.5)" fill="#F5F5F5"/>
<rect opacity="0.720266" x="173" y="45" width="681" height="937" rx="71.5" stroke="#808080"/>
<rect opacity="0.720266" x="109" y="109" width="809" height="809" rx="71.5" stroke="#808080"/>
<rect opacity="0.720266" x="45" y="173" width="937" height="681" rx="71.5" stroke="#808080"/>
<path d="M513.5 45C772.245 45 982 254.755 982 513.5C982 772.245 772.245 982 513.5 982C254.755 982 45 772.245 45 513.5C45 254.755 254.755 45 513.5 45Z" stroke="#808080"/>
<path d="M513.5 303C629.756 303 724 397.244 724 513.5C724 629.756 629.756 724 513.5 724C397.244 724 303 629.756 303 513.5C303 397.244 397.244 303 513.5 303Z" stroke="#808080"/>
<rect x="365" y="365" width="297" height="297" stroke="#808080"/>
<path d="M365.5 1.5V1025.5" stroke="#808080" stroke-linecap="square"/>
<path d="M513.5 0.5V1024.5" stroke="#808080" stroke-linecap="square"/>
<path d="M661.5 0.5V1024.5" stroke="#808080" stroke-linecap="square"/>
<path d="M1025.5 365.5H1.5" stroke="#808080" stroke-linecap="square"/>
<path d="M1024.5 513.5H0.5" stroke="#808080" stroke-linecap="square"/>
<path d="M1025.5 661.5H1.5" stroke="#808080" stroke-linecap="square"/>
<path d="M1.5 1.5L1025.5 1025.5" stroke="#808080" stroke-linecap="square"/>
<path d="M1025.5 1.5L1.5 1025.5" stroke="#808080" stroke-linecap="square"/>
</svg>
